<svg width="88" height="60" viewBox="0 0 88 60" fill="none" xmlns="http://www.w3.org/2000/svg">
<g id="Actual">
<rect width="543" height="278" transform="translate(-299 -19)" fill="white"/>
<g id="css3">
<path id="background" d="M26 11H57.08C58.6501 11 60.1559 11.6237 61.2661 12.7339C62.3763 13.8441 63 15.3499 63 16.92V42.08C63 43.6501 62.3763 45.1559 61.2661 46.2661C60.1559 47.3763 58.6501 48 57.08 48H31.92C30.3499 48 28.8441 47.3763 27.7339 46.2661C26.6237 45.1559 26 43.6501 26 42.08V11Z" fill="#663399"/>
<path id="whiteLetters" d="M42.131 34.681H42.6171L42.6308 34.1951C42.6705 32.7873 42.2943 31.6029 41.5273 30.7711C40.7573 29.936 39.6496 29.5176 38.3531 29.537C37.0633 29.5377 35.9321 29.896 35.1185 30.645C34.2979 31.4004 33.861 32.4973 33.861 33.848V40.064C33.861 41.4206 34.2623 42.5173 35.0452 43.2728C35.8241 44.0245 36.9146 44.3743 38.1682 44.375C39.4818 44.3943 40.6489 43.968 41.4681 43.1221C42.2257 42.3396 42.6425 41.243 42.6399 39.9298C42.7049 41.1905 43.0664 42.2708 43.7456 43.059C44.4881 43.9208 45.5603 44.375 46.867 44.375C48.15 44.375 49.2447 43.9921 50.0177 43.2027C50.6038 42.6042 50.9689 41.8089 51.1106 40.8613C51.273 41.7249 51.6024 42.4727 52.1076 43.059C52.8501 43.9208 53.9223 44.375 55.229 44.375C56.512 44.375 57.6067 43.9921 58.3797 43.2027C59.1516 42.4145 59.54 41.2852 59.54 39.916C59.54 38.78 59.3242 37.8522 58.8204 37.0804C58.3182 36.311 57.5649 35.7511 56.5924 35.2842L56.5849 35.2807L56.5774 35.2773L55.6524 34.8703L55.6524 34.8703L55.6433 34.8665C55.2232 34.6914 55.0326 34.5501 54.9304 34.4095C54.8348 34.2782 54.767 34.0784 54.767 33.663C54.767 33.2411 54.8468 33.0637 54.908 32.9912C54.9517 32.9395 55.048 32.868 55.34 32.868C55.4652 32.868 55.5352 32.8955 55.5781 32.9227C55.6224 32.9507 55.6724 33.0006 55.722 33.0983C55.8311 33.3135 55.8951 33.672 55.9133 34.1982L55.9299 34.681H56.413H58.892H59.4065L59.3918 34.1667C59.3531 32.8108 59.0327 31.642 58.3501 30.8036C57.6526 29.9467 56.63 29.5 55.34 29.5C54.059 29.5 52.9954 29.9301 52.2536 30.7099C51.5151 31.4861 51.14 32.5618 51.14 33.774C51.14 34.8253 51.3147 35.6797 51.7628 36.3903C52.2113 37.1012 52.8951 37.607 53.7923 38.0361L53.7922 38.0361L53.7985 38.039L54.7594 38.4825C54.7596 38.4826 54.7598 38.4827 54.7599 38.4827C55.2434 38.7073 55.5071 38.9123 55.6571 39.1186C55.7988 39.3134 55.876 39.5604 55.876 39.953C55.876 40.4793 55.7928 40.7488 55.7021 40.879C55.6406 40.9673 55.5411 41.044 55.266 41.044C55.0695 41.044 54.9291 40.9658 54.8119 40.7696C54.678 40.5454 54.582 40.1669 54.582 39.62V39.12H54.082H51.492H51.1382C51.0551 38.3356 50.8377 37.6624 50.4525 37.0784C49.9444 36.3083 49.1807 35.7488 48.1899 35.2826L48.1899 35.2826L48.1853 35.2805L47.2973 34.8735L47.2894 34.8698L47.2813 34.8665C46.8585 34.6903 46.6549 34.5468 46.5429 34.4002C46.4411 34.267 46.368 34.0681 46.368 33.663C46.368 33.2516 46.453 33.0753 46.5192 33.0008C46.5733 32.9399 46.6857 32.868 46.978 32.868C47.1034 32.868 47.1729 32.8956 47.2147 32.9221C47.2575 32.9494 47.3057 32.9977 47.3527 33.0931C47.4565 33.3037 47.514 33.659 47.514 34.181V34.681H48.014H50.493H51.0002L50.9929 34.1739C50.9735 32.8097 50.642 31.6391 49.9487 30.8006C49.243 29.9472 48.2134 29.5 46.941 29.5C45.6767 29.5 44.6147 29.9312 43.8697 30.7085C43.1275 31.4831 42.741 32.5583 42.741 33.774C42.741 34.8296 42.9265 35.6849 43.3853 36.3949C43.8431 37.1034 44.5348 37.6078 45.4303 38.0361L45.4302 38.0361L45.4365 38.039L46.3947 38.4812C46.8598 38.7056 47.1274 38.9115 47.2842 39.1226C47.4318 39.3213 47.514 39.5695 47.514 39.953C47.514 40.4885 47.4374 40.7559 47.3505 40.884C47.2968 40.9631 47.2046 41.044 46.904 41.044C46.684 41.044 46.5458 40.9612 46.4314 40.7696C46.2962 40.5433 46.2002 40.1621 46.1827 39.6044L46.1676 39.12H45.683H43.13H42.6229L42.6293 39.5758L42.6043 39.12H42.131H39.393H38.8531L38.8945 39.6583C38.9271 40.0831 38.8639 40.4299 38.7452 40.6491C38.6436 40.8367 38.5088 40.9299 38.2938 40.9329C38.0187 40.9181 37.8867 40.8278 37.7997 40.6993C37.6886 40.5353 37.599 40.2302 37.599 39.694V34.292C37.599 33.7109 37.6677 33.3768 37.7746 33.1959C37.8201 33.1188 37.8705 33.0735 37.932 33.0427C37.9989 33.0091 38.1068 32.979 38.283 32.979H38.2955L38.308 32.9784C38.4778 32.9699 38.6121 33.0382 38.7214 33.2099C38.8421 33.3996 38.9259 33.7185 38.8944 34.1441L38.8546 34.681H39.393H42.131Z" fill="white" stroke="#663399"/>
</g>
</g>
</svg>
